<svg xmlns="http://www.w3.org/2000/svg" width="16.501" height="18.001" viewBox="0 0 16.501 18.001">
  <path id="recommendation" d="M686.107,15.208a8.619,8.619,0,0,0,2.4-1.785L690.5,16.5h-1.734l-.859,1.5ZM675.734,16.5H674l1.992-3.078a8.619,8.619,0,0,0,2.4,1.785L676.594,18Zm5.394-2.726-1.483.773-.63-1.53-1.66.229L677.3,11.6l-1.64-.346.516-1.571L674.75,8.8l1.031-1.3L674.75,6.2l1.422-.876-.516-1.571,1.641-.345.059-1.651,1.66.228.63-1.53,1.482.774L682.25,0l1.123,1.226,1.482-.773.63,1.53,1.661-.229.059,1.651,1.639.346-.515,1.571,1.421.876-1.031,1.3,1.031,1.3-1.421.876.515,1.571-1.64.345-.059,1.651-1.66-.229-.63,1.531-1.483-.774L682.25,15ZM677,7.5A5.251,5.251,0,1,0,682.25,2.25,5.251,5.251,0,0,0,677,7.5Zm7.082,2.96-1.831-.974-1.831.974a.253.253,0,0,1-.121.031.258.258,0,0,1-.254-.3c.135-.746.366-2.033.366-2.033l-1.5-1.432a.249.249,0,0,1-.079-.183.256.256,0,0,1,.222-.256L681.114,6l.905-1.859a.258.258,0,0,1,.464,0L683.388,6l2.057.283a.255.255,0,0,1,.221.255.252.252,0,0,1-.078.184l-1.5,1.432.365,2.033a.256.256,0,0,1-.254.3A.25.25,0,0,1,684.082,10.461Z" transform="translate(-674)" fill="#fff" opacity="0.8"/>
</svg>
